<svg width="1400" height="286" viewBox="0 0 1400 286" fill="none" xmlns="http://www.w3.org/2000/svg">
<g clip-path="url(#clip0)">
<path d="M144.736 79.7471C142.572 81.2519 142.29 88.6817 142.29 90.0925C142.29 93.9485 142.855 96.2997 143.889 96.958C146.146 98.2747 144.265 99.3093 146.334 99.3093C150.002 99.3093 153.952 94.983 153.952 93.9485C153.952 93.3842 153.482 92.6318 152.636 91.7853C151.037 90.1865 150.943 89.7163 150.943 85.8603C150.849 81.1578 149.626 78.8066 147.275 78.8066C146.617 78.8066 145.77 79.0887 144.736 79.7471ZM46.5486 92.4437C46.5486 93.5723 47.395 94.4187 48.9938 94.983C50.4986 95.5473 59.3392 95.8294 75.4216 95.8294C92.7266 95.8294 105.329 95.5473 113.135 94.889C119.625 94.3247 132.039 93.8544 132.791 93.6663C134.202 93.3842 136.553 91.6913 136.553 88.8698C136.553 87.271 135.049 83.9793 133.638 84.8257C131.098 86.3305 115.204 87.4591 110.784 87.7412C103.918 88.2115 94.2313 88.3996 81.7228 88.3996C75.2335 88.3996 69.3084 88.0234 65.0762 88.0234C59.8095 88.0234 54.8249 88.3996 49.276 88.6817C47.395 88.7758 46.5486 91.5972 46.5486 92.4437ZM156.586 91.6913C156.586 98.0866 156.962 98.9331 159.595 100.25C161.288 101.096 162.605 101.378 164.204 100.156C165.52 99.1212 164.956 93.9485 164.862 90.1865C164.674 84.9198 164.486 81.6281 164.204 80.4054C163.922 79.1828 163.169 78.6185 161.758 78.6185C160.348 78.6185 159.313 78.8066 158.655 79.1828C157.244 79.8411 156.586 83.9793 156.586 91.6913ZM172.574 93.1961C172.574 94.0425 172.48 95.4532 173.326 95.3592C175.301 95.1711 174.925 98.0866 182.637 96.958C187.058 96.2997 239.067 92.1615 243.393 91.127C248.377 89.9044 257.688 94.0425 258.347 88.2115C258.535 86.5186 259.287 86.7067 259.287 85.5781C259.287 78.6185 240.854 84.1674 231.637 84.8257C225.806 85.296 172.574 89.246 172.574 93.1961ZM526.312 79.7471C525.842 80.9697 525.654 82.9448 525.654 85.6722C525.654 88.4936 525.466 90.6568 524.996 92.0675C524.714 93.102 524.431 95.5473 524.337 99.4033C524.337 102.789 524.714 104.858 525.372 105.611C525.936 106.175 526.594 106.457 527.347 106.457C528.381 106.457 529.416 106.081 530.639 105.328C531.203 105.046 531.579 104.2 531.767 102.977C531.955 101.755 532.143 98.5569 532.331 93.3842C532.426 91.3151 532.426 88.4936 532.426 85.0138C532.426 82.4745 532.426 81.1578 532.331 80.8757C531.955 79.653 529.322 77.9602 527.723 77.9602C527.253 77.9602 526.783 78.5245 526.312 79.7471ZM359.282 89.6222C359.282 89.8103 359.282 90.1865 359.376 90.6568V91.6913C359.564 94.1366 361.257 94.0425 363.42 94.0425C391.728 94.0425 398.594 93.1961 426.903 92.5377C433.862 92.3496 437.624 92.0675 438.189 91.8794C438.659 91.5032 462.923 93.1961 477.313 93.1961C484.931 93.1961 489.351 93.2901 490.668 93.4782C492.079 93.6663 493.301 93.7604 494.054 93.7604C495.746 93.7604 496.875 93.1961 497.345 91.9734C497.627 91.5032 497.721 91.033 497.721 90.7508C497.721 90.1865 497.251 87.5531 495.841 86.9889L495.182 86.7067C493.583 86.0484 488.881 86.1424 486.059 86.1424C480.605 86.2365 476.655 86.4246 474.303 86.7067C473.175 86.8008 449.945 85.296 438.471 85.7662C431.793 86.0484 397.183 87.6472 380.725 87.7412L360.222 88.0234C359.282 88.0234 359.282 88.9639 359.282 89.6222ZM511.547 99.4973C511.547 101.284 511.359 103.447 512.957 104.576C513.804 105.234 514.556 105.611 515.215 105.611C516.061 105.611 517.19 104.952 518.412 103.73C520.011 102.131 520.858 100.438 520.858 98.6509C520.858 97.7104 520.575 96.958 520.011 96.4878C519.165 95.8294 518.788 94.4187 518.694 91.3151C518.694 89.152 518.882 87.4591 519.165 86.3305C519.353 85.5781 521.046 77.9602 517.001 78.6185C516.531 78.7126 515.779 78.8066 514.65 79.1828C513.24 79.7471 512.957 81.3459 512.769 83.0388C511.923 90.4687 511.547 95.8294 511.547 99.4973ZM555.75 94.7949C555.75 99.2152 562.709 99.4973 564.308 99.4973L641.428 99.5914C663.436 99.5914 678.86 99.4973 687.794 99.4033L704.253 99.2152C705.475 99.2152 706.322 97.4283 706.322 96.2056C706.322 94.983 705.569 93.1961 704.253 93.1961L680.082 93.3842C672.276 93.4782 652.432 93.6663 648.858 93.6663H645.848C622.806 93.6663 566.283 92.7258 564.308 92.3496C562.615 91.9734 560.828 92.1615 558.759 92.7258C556.784 93.2901 555.75 93.5723 555.75 94.7949ZM1072.63 81.7221C1071.41 83.1328 1070.19 89.7163 1070.19 95.4532V96.958C1070.19 99.1212 1069.72 101.755 1072.82 102.789C1073.67 103.071 1074.7 101.755 1075.64 101.19C1077.43 100.156 1078.28 99.3093 1078.28 98.5569C1078.28 97.7104 1077.9 92.0675 1077.81 89.8103C1077.71 86.3305 1077.99 80.7816 1074.51 80.7816C1073.86 80.7816 1073.2 81.0638 1072.63 81.7221ZM806.381 102.225C806.381 103.824 807.886 104.764 810.895 105.046C813.905 105.328 823.686 105.516 840.521 105.516C874.378 105.516 940.213 103.259 970.026 101.002C977.268 100.532 989.776 99.9676 1007.46 99.6854L1033.13 99.3093C1034.73 99.3093 1036.89 98.745 1038.4 97.7104C1040.94 95.9235 1041.79 95.6413 1041.79 94.7949C1041.79 93.8544 1040.37 93.3842 1037.55 92.8199C1035.2 92.1615 1032.94 92.2556 1030.88 92.2556C1029.18 92.2556 1026.74 92.4437 1023.35 92.8199C1019.78 93.1961 1012.91 93.5723 1002.66 94.0425C980.936 94.889 960.997 95.9235 942.94 97.0521C912.468 98.9331 881.714 99.8735 850.772 99.8735H843.812C831.304 99.8735 806.381 98.745 806.381 100.438V102.225ZM1058.71 95.2652C1058.71 98.3688 1058.9 100.532 1059.28 101.755C1059.56 103.071 1060.22 103.73 1061.07 103.73C1061.72 103.73 1062.76 103.353 1064.17 102.507C1065.77 101.566 1066.52 100.532 1066.52 99.4033C1066.52 98.9331 1066.33 97.8985 1065.86 96.4878C1065.3 94.7949 1065.02 93.008 1065.02 91.127V89.9984C1065.02 86.3305 1064.55 83.8852 1063.51 82.6626C1063.04 82.1924 1062.48 81.9102 1061.82 81.9102C1060.6 81.9102 1059.84 82.3805 1059.47 83.415C1059.09 84.6376 1058.71 87.8353 1058.71 93.008V95.2652ZM1096.99 92.0675C1096.99 95.4532 1101.13 96.6759 1119.75 96.6759C1120.79 96.6759 1122.67 96.6759 1125.49 96.5818H1132.64C1170.16 96.2997 1192.83 95.9235 1200.54 95.2652C1204.68 94.889 1213.24 94.7009 1226.4 94.7009H1231.76C1240.7 94.7009 1245.68 94.6068 1246.53 94.4187C1247.75 94.1366 1263.08 93.9485 1292.71 93.6663C1322.99 93.3842 1338.98 93.2901 1340.48 93.1961C1343.12 93.102 1344.34 92.5377 1344.34 91.5032C1344.34 90.9389 1344.06 90.2806 1343.31 89.6222L1341.52 88.0234H1315.94C1303.81 88.0234 1291.01 88.1174 1288.76 88.2115C1285.56 88.3996 1272.11 88.5877 1259.88 88.7758C1256.88 88.8698 1238.25 89.152 1204.11 89.8103C1183.14 90.2806 1162.17 90.5627 1141.19 90.5627C1128.4 90.5627 1117.78 90.4687 1109.12 90.1865L1096.99 89.6222V92.0675ZM381.403 202.76H382.987C393.499 202.76 398.203 205.784 398.203 211.4C398.203 215 397.531 216.872 393.019 219.8C390.523 221.432 386.011 221.384 383.419 221.624L378.715 222.056C377.323 222.44 376.123 223.16 375.451 224.504L375.547 219.08C375.595 211.208 375.691 207.752 376.171 203.96C377.323 203.48 379.819 202.76 381.403 202.76ZM368.539 206.6C368.539 206.984 368.539 207.464 368.875 207.752C369.499 208.184 370.603 209.192 371.035 209.768C371.227 209.816 371.179 212.6 371.227 216.2L371.323 225.272C372.235 226.28 377.323 226.52 379.051 226.424C382.315 226.232 386.539 226.136 388.891 225.848C392.347 225.272 394.747 224.552 397.147 222.872C400.219 220.712 403.483 217.208 403.483 211.16C403.483 200.504 392.347 197.864 382.075 197.864C380.491 197.864 377.323 198.056 376.603 198.296C376.795 196.904 376.267 195.464 374.587 195.656C373.771 195.752 372.331 195.752 371.995 197.288L371.899 199.256C371.851 199.88 371.515 200.552 370.891 201.224C369.595 202.616 368.779 204.2 368.587 206.12L368.539 206.6ZM408.859 200.12C408.523 200.552 408.235 201.176 408.235 201.368C408.235 202.712 411.595 204.296 413.275 204.296C414.283 204.296 415.003 203.816 415.003 203.144C415.003 202.28 413.851 200.552 412.123 199.784C411.451 199.496 410.875 199.352 410.443 199.352C409.819 199.352 409.291 199.64 408.859 200.12ZM406.219 209.336C404.779 211.112 406.123 220.664 406.939 223.736C407.371 225.464 408.427 226.664 409.435 226.664C410.587 226.664 412.939 225.368 412.939 223.592C412.939 222.968 412.699 222.248 412.027 221.576C409.819 219.368 410.491 212.168 408.379 209.576C408.091 209.192 407.611 209 407.083 209C406.699 209 406.363 209.144 406.219 209.336ZM430.641 199.448C429.393 200.312 429.441 202.136 429.537 204.776L429.729 209.576C427.473 209.72 424.017 209.864 422.337 209.864C421.473 205.16 421.233 202.76 420.993 202.136C420.753 201.464 420.368 201.176 419.841 201.176C419.312 201.176 418.641 201.512 418.401 202.184C418.161 202.856 417.777 204.392 418.017 210.392C417.009 210.632 416.193 210.68 414.849 210.68C413.409 210.68 412.448 211.352 412.688 212.504C412.928 213.56 414.753 213.896 415.713 213.944C416.529 213.992 417.873 213.992 418.305 213.944L418.401 214.76C418.737 217.496 419.361 221 420.129 223.208C420.705 224.792 422.097 226.616 423.777 226.616C424.881 226.616 425.553 225.896 425.553 224.888C425.553 224.408 425.409 223.928 425.169 223.448C424.065 221.384 423.585 219.752 423.249 216.44L423.009 213.944C424.641 213.944 428.769 213.848 430.113 213.8L430.497 217.736C430.977 222.536 433.233 225.992 434.145 226.52C434.529 226.712 434.865 226.808 435.201 226.808C435.825 226.808 436.353 226.472 436.785 225.8C437.073 225.32 437.217 224.84 437.217 224.36C437.217 223.64 436.449 222.968 435.825 221.672C433.953 217.832 433.905 213.656 433.905 213.56C436.353 213.368 440.481 212.984 443.649 211.448C444.177 211.208 444.369 210.776 444.369 210.488C444.369 209.816 443.312 208.952 441.921 208.952C441.393 208.952 435.825 209.432 433.665 209.432C433.473 207.128 433.281 201.32 433.089 200.6C432.849 199.736 432.465 199.16 432.033 199.16C431.649 199.16 431.025 199.16 430.641 199.448ZM456.907 213.944C462.331 213.944 463.675 215.48 463.531 216.68C463.435 217.496 460.987 222.92 453.115 222.92C449.707 222.92 448.795 220.184 449.707 217.4C449.851 216.968 449.995 216.584 450.523 216.344C453.115 215.096 452.923 213.944 456.907 213.944ZM444.811 219.896C444.811 224.936 448.795 227.288 453.691 227.288C463.819 227.288 467.563 219.032 467.899 217.832C468.187 216.632 468.379 215.096 467.563 213.944C465.403 210.488 457.771 208.904 452.683 209.816C451.195 210.056 451.003 210.872 449.515 210.872C448.795 210.872 448.123 210.968 447.643 211.064C446.827 211.352 445.771 211.784 445.771 213.032C445.771 216.056 444.811 217.496 444.811 219.896ZM487.072 198.488C485.392 198.824 485.92 199.448 484.528 199.88C483.616 200.456 483.664 201.512 483.712 202.184L483.856 204.44C484.096 215.72 484.864 223.928 484.864 224.024C485.056 226.136 485.584 227.384 487.264 227.384C487.792 227.384 488.752 226.664 489.232 225.992C489.616 225.416 489.904 224.6 489.808 223.544C489.472 219.752 488.8 216.104 488.656 213.896C488.608 213.368 488.704 213.08 488.8 213.032H488.896C489.472 213.032 491.104 217.448 493.792 220.424C495.568 222.344 497.344 224.888 499.984 224.888C502.672 224.888 505.6 218.84 508.336 215.48L512.56 210.344C512.752 210.44 513.232 214.424 513.376 215.72C513.568 218.456 514.192 226.376 515.296 227.624C516.256 228.68 518.416 228.2 519.232 226.376C519.616 225.56 520 224.024 520.048 222.728C520.048 219.8 519.616 219.272 518.128 218.792C517.504 218.216 517.648 217.544 517.456 215.528C517.312 213.896 516.4 204.44 516.208 203.192C515.968 201.656 515.632 199.736 513.616 199.736C512.464 199.832 511.888 200.312 511.456 200.936C509.44 204.68 502.384 217.976 499.504 217.928C496.192 217.112 490.816 205.544 489.232 200.936C488.896 199.784 487.792 198.344 487.072 198.488ZM532.161 213.704C536.721 211.112 539.553 212.504 539.841 213.416C540.033 213.944 538.257 214.664 537.921 216.392C537.633 217.88 535.041 219.896 533.648 221.048C530.529 223.544 527.457 224.024 527.121 221.048C526.881 218.984 528.945 215.528 532.161 213.704ZM522.849 221.96C522.849 225.32 524.769 227 527.841 227C532.401 227 536.481 222.92 538.257 221.432C540.033 219.944 540.993 219.224 541.185 219.224C541.233 219.224 541.233 219.224 541.281 219.272C541.521 219.464 541.809 220.472 542.097 222.296C542.241 223.16 542.385 224.744 542.721 225.896C543.009 226.952 544.305 227.288 545.217 227.288C547.281 227.288 548.865 225.464 549.585 223.544C550.929 219.944 554.097 213.992 555.057 213.944C557.217 213.848 556.545 217.736 556.545 221.288C556.545 223.688 556.593 226.52 558.753 226.52C561.153 226.52 560.097 220.76 562.881 216.104C563.745 214.616 565.041 212.696 566.385 212.552C568.113 212.408 568.161 213.992 569.409 212.984C570.705 211.832 568.449 208.664 566.721 208.664C565.953 208.664 564.417 208.856 563.409 210.2C561.825 212.168 561.441 212.36 560.001 212.36C559.665 212.36 559.041 211.832 558.369 210.824C557.265 209.144 557.361 208.76 555.633 208.76C553.569 208.76 552.465 209.576 551.312 211.4C550.161 213.224 547.281 221.048 546.321 221.048C545.649 221.048 546.609 212.888 544.161 211.832C542.769 210.776 542.145 209.144 540.801 208.664C540.273 208.472 537.297 207.224 534.177 208.568C531.153 209.576 528.609 211.112 526.545 213.176C524.097 215.48 522.849 219.08 522.849 221.96ZM574.873 221.288H576.985C579.481 221.288 584.281 224.936 585.721 225.944C587.977 227.528 589.801 227.528 591.625 227.528C594.025 227.528 596.713 225.224 597.193 224.12C597.529 223.352 597.241 222.104 595.465 222.488C594.793 222.632 593.065 223.832 591.625 223.736C587.545 223.496 586.393 218.696 582.313 218.12C582.073 218.072 584.905 216.824 586.105 215.24C587.401 213.896 588.073 212.888 588.073 212.168C588.073 211.736 587.881 211.304 587.497 210.824C587.065 210.296 586.393 210.056 585.433 210.056C584.761 210.056 584.377 210.2 584.281 210.536C583.945 211.496 581.257 214.04 579.577 215C578.329 215.672 576.985 216.008 575.593 216.056L573.529 216.104V213.896C573.529 212.408 573.577 205.112 573.097 203.48C572.761 202.376 572.377 202.088 571.465 202.088C570.889 202.088 570.409 202.28 570.073 202.616C569.017 203.624 569.017 216.296 569.065 217.784C569.113 221.528 569.209 223.736 569.257 224.456C569.353 226.088 569.881 227.528 571.561 227.528C573.145 227.528 574.201 224.888 574.873 221.288ZM610.723 207.992C609.283 207.56 604.531 206.552 599.827 208.904C597.811 209.912 595.987 212.264 595.843 213.32C595.507 215.72 596.899 216.824 600.067 217.544C601.507 217.88 608.275 218.936 609.187 219.704C609.331 219.8 609.331 219.896 609.331 219.944C609.187 222.056 605.011 223.112 602.563 223.112C601.075 223.112 600.355 222.056 598.819 222.056C597.091 222.056 595.507 223.16 595.507 225.08C595.507 226.712 597.091 227.096 598.819 227.096C602.563 227.096 610.387 226.712 613.411 222.2C613.987 221.336 614.275 220.136 614.275 218.648C614.275 217.304 613.315 216.344 612.211 215.816C610.435 214.952 608.467 214.472 604.723 214.136C603.907 214.04 602.563 213.704 602.659 213.416C603.619 211.112 606.355 210.92 609.043 211.112C611.251 211.256 612.595 211.064 612.835 209.864C612.931 209.288 612.067 208.376 610.723 207.992ZM637.848 193.64C636.984 193.832 636.12 194.168 635.448 194.84C629.976 200.312 628.92 208.52 628.92 213.848C628.92 217.544 628.488 222.968 632.808 227.96C636.264 231.944 643.224 230.12 645.432 229.112C648.984 227.528 650.76 226.424 650.808 225.944C650.952 224.936 649.128 225.608 648.072 226.136C646.488 227 641.256 227.144 638.376 225.8C634.152 223.832 632.712 218.744 633.72 209.096C634.392 202.952 636.456 199.256 638.376 197.864C639.432 197.096 640.104 196.328 640.44 195.464C640.776 194.504 640.872 193.592 639.816 193.496C639.288 193.448 638.664 193.496 637.848 193.64ZM662.769 201.32C662.097 201.752 661.713 202.232 661.617 202.664C661.521 203.144 661.089 203.96 657.873 207.848C656.385 209.672 655.809 210.968 655.809 211.16C655.809 211.352 655.905 211.688 656.097 212.12C656.577 213.08 657.249 213.56 658.113 213.56C659.169 213.56 660.945 210.728 663.153 209.192C664.977 207.944 669.297 205.304 671.889 205.304C672.081 205.304 672.177 205.304 672.321 205.4C672.657 205.592 672.849 206.072 672.849 206.792C672.849 207.272 672.849 209.624 668.625 213.752C664.833 217.64 660.753 221.48 659.889 222.44C658.929 223.592 659.601 224.6 660.609 225.704C662.625 227.864 667.281 227.192 670.209 226.904C677.361 226.232 680.481 224.552 680.817 223.688C680.961 223.16 681.057 222.776 681.057 222.488C681.057 222.008 680.721 221.432 680.049 220.808C679.377 220.184 678.993 219.704 678.849 219.368C678.801 219.272 678.753 219.224 678.656 219.224C678.513 219.224 678.081 219.608 677.361 220.088C675.201 221.48 669.777 222.488 666.273 222.392C671.073 218.36 673.233 215.384 674.721 213.368C676.353 211.16 677.265 208.568 677.265 206.6C677.265 202.856 675.777 200.552 672.033 200.888C669.345 201.128 668.673 201.944 667.137 201.944C666.273 201.944 664.977 200.648 664.257 200.648C663.921 200.648 663.441 200.888 662.769 201.32ZM687.093 224.504C687.093 225.272 686.757 226.28 686.085 227.528C685.557 228.632 685.221 229.304 685.269 229.64C685.509 231.848 688.869 230.84 688.869 229.784C688.869 229.496 689.349 228.776 690.309 227.672C691.653 226.088 691.797 225.704 691.797 224.504C691.797 222.776 691.029 221.912 689.493 221.912C687.909 221.912 687.093 222.776 687.093 224.504ZM717.585 203.528C716.433 197.816 703.425 200.456 698.433 203.432C697.377 204.056 695.745 205.352 695.745 205.832C695.745 207.128 697.233 208.856 697.905 208.856C698.625 208.856 699.873 207.032 703.521 205.88C706.833 204.824 713.073 203.288 712.689 206.648C712.497 208.52 707.793 211.448 703.041 212.504C701.121 212.936 699.057 213.368 697.713 213.656C697.329 213.896 697.089 214.28 697.089 214.808C697.089 215.192 697.185 215.72 697.377 216.248C697.665 216.968 698.193 217.16 698.817 217.016C705.201 215.72 714.321 216.68 713.793 218.792C713.265 220.904 710.001 222.68 707.025 223.064C705.249 223.304 702.705 222.68 701.457 221.912C700.449 221.288 699.585 220.76 698.625 220.376C697.809 220.088 697.041 220.904 696.177 221.48C695.409 221.912 694.545 222.536 694.929 223.256C695.649 225.416 701.025 226.76 705.585 227C706.065 227.048 706.737 227.048 707.553 227.048C712.737 227.144 717.825 224.12 719.169 219.08C720.033 215.96 718.545 213.752 714.657 213.032C713.073 212.744 712.737 212.744 711.969 212.744C717.585 209.336 717.921 205.208 717.585 203.528ZM748.235 213.944C753.659 213.944 755.003 215.48 754.859 216.68C754.763 217.496 752.315 222.92 744.443 222.92C741.035 222.92 740.123 220.184 741.035 217.4C741.179 216.968 741.323 216.584 741.851 216.344C744.443 215.096 744.251 213.944 748.235 213.944ZM736.139 219.896C736.139 224.936 740.123 227.288 745.019 227.288C755.147 227.288 758.891 219.032 759.227 217.832C759.515 216.632 759.707 215.096 758.891 213.944C756.731 210.488 749.099 208.904 744.011 209.816C742.523 210.056 742.331 210.872 740.843 210.872C740.123 210.872 739.451 210.968 738.971 211.064C738.155 211.352 737.099 211.784 737.099 213.032C737.099 216.056 736.139 217.496 736.139 219.896ZM763.233 207.608C762.945 207.896 762.801 208.52 762.801 209.576C762.801 209.768 763.617 216.92 763.617 221.672C763.617 223.016 763.329 225.032 764.001 226.28C764.529 227.24 765.441 227.624 765.825 227.624C766.449 227.624 767.025 227.288 767.937 226.52C769.233 225.512 769.329 225.272 769.521 223.304C769.857 219.704 770.193 218.84 771.681 216.344C772.881 214.328 773.984 213.32 774.993 213.32C776.001 213.32 776.481 213.704 776.577 213.704C776.865 213.704 777.297 213.464 777.825 212.888C778.449 212.312 778.737 211.784 778.737 211.4C778.737 211.208 778.641 210.92 778.497 210.488C778.353 210.056 778.065 209.816 777.681 209.816C777.345 209.816 776.817 209.672 776.097 209.288C775.473 209 774.945 208.952 773.745 209.384C772.209 209.912 769.521 211.688 767.745 214.184C767.457 210.344 766.977 209.048 766.641 208.328C766.209 207.368 765.441 207.224 764.529 207.224C763.905 207.224 763.473 207.368 763.233 207.608ZM808.938 208.136C809.034 209.72 809.034 213.464 809.034 215.192C807.738 215.24 802.986 215.576 799.53 215.24C801.834 214.04 807.738 209.336 808.938 208.136ZM793.53 218.408C794.778 219.656 798.282 219.656 809.13 219.56L809.226 222.056C809.322 225.08 809.658 227.432 811.866 227.24C812.442 227.192 813.354 227 813.546 226.28C814.122 224.072 813.978 222.968 813.978 219.608C817.29 219.464 820.026 219.032 821.898 218.408C824.106 217.64 825.498 216.728 825.738 215.144C825.834 214.568 825.786 213.272 824.922 213.272C824.586 213.272 823.962 214.856 816.138 215L813.882 215.048L813.93 211.304C813.93 210.68 813.978 208.904 813.738 206.024C813.738 205.4 813.786 204.92 813.786 204.584C813.786 203.048 813.354 200.504 811.194 200.504C809.994 200.504 809.082 201.272 808.458 202.712C807.306 204.872 799.386 211.016 795.978 213.32C793.146 215.24 791.514 216.392 793.53 218.408ZM842.191 197.24C840.511 197.912 839.647 201.176 839.647 206.984C839.647 209.672 840.079 227 843.823 226.952C845.359 226.952 847.279 223.976 849.583 221.384C851.647 219.032 852.847 217.592 853.471 217.16C853.999 216.824 854.719 216.632 855.343 216.68C857.263 216.824 857.743 219.944 858.223 223.832C858.559 226.136 859.375 226.952 861.679 226.952C863.599 226.952 864.127 226.712 865.855 225.176C866.767 224.408 867.247 224.024 867.391 224.024C867.727 224.024 867.871 223.784 867.871 223.256C867.871 222.824 867.727 222.44 867.487 222.2C866.815 221.528 865.519 221.624 864.655 221.864C862.207 222.536 862.159 217.784 861.343 215.432C860.671 213.512 859.183 212.312 858.079 211.784C856.831 211.208 854.095 211.112 851.743 212.408C850.591 213.032 848.143 215.48 846.751 217.544C845.983 218.648 845.455 219.224 845.215 219.224C844.879 219.224 843.055 209.096 844.879 201.032C845.503 198.296 845.359 196.952 843.487 196.952C843.055 196.952 842.623 197.048 842.191 197.24ZM881.765 208.472C881.333 208.472 879.077 208.808 879.077 210.296V212.024C879.077 216.776 876.677 219.368 874.613 219.512C873.221 219.608 872.117 215.576 872.117 210.584C872.117 209.528 870.629 208.52 869.861 208.52C869.285 208.52 868.757 208.76 868.181 209.336C867.413 210.008 867.365 212.792 867.461 213.848C867.653 219.224 868.757 223.976 873.941 223.976C876.053 223.976 879.749 221.144 879.797 218.024C880.565 227.96 878.741 232.232 876.821 232.808C876.245 233 875.717 233.096 875.381 233.096C874.325 233.096 874.037 232.232 873.749 231.896C873.077 231.128 872.165 230.552 871.205 230.792C869.717 231.128 869.333 232.616 869.573 233.72C870.197 236.552 874.229 238.376 876.053 238.376C881.237 238.376 885.173 230.792 884.741 221.528C884.597 219.848 884.501 217.16 884.405 213.512C884.357 212.024 884.261 210.776 884.213 210.344C883.925 208.616 882.485 208.472 881.765 208.472ZM903.001 213.464C903.577 213.704 903.865 214.232 903.865 215C903.865 215.336 903.817 215.624 903.769 215.816C903.193 217.688 899.785 220.28 898.297 220.28C897.961 220.28 897.817 220.088 897.817 219.752C897.817 219.368 898.297 218.216 896.521 218.456C895.513 218.6 893.017 219.992 892.681 220.28C892.249 220.568 891.961 220.76 891.769 220.76C891.481 220.76 891.193 220.04 891.433 215.24C893.545 214.136 896.809 212.888 899.929 212.888C901.129 212.888 902.185 213.08 903.001 213.464ZM887.065 217.208C887.065 225.752 887.545 231.704 888.505 236.264C888.937 238.376 889.993 240.152 890.809 240.152C891.577 240.152 892.057 239.72 892.873 238.616C893.209 238.136 893.929 237.704 893.929 237.128C893.929 234.392 893.305 232.376 892.921 231.992C892.249 231.224 891.865 229.736 891.817 227.528V225.992C896.137 226.136 902.905 224.12 906.601 218.312C907.753 216.488 908.953 212.792 907.225 210.968C903.817 207.08 895.369 208.52 891.145 210.584C890.953 208.712 889.897 208.424 889.465 208.424C888.505 208.424 887.065 211.832 887.065 217.208ZM912.551 197.24C910.871 197.912 910.007 201.176 910.007 206.984C910.007 209.672 910.439 227 914.183 226.952C915.719 226.952 917.639 223.976 919.943 221.384C922.007 219.032 923.207 217.592 923.831 217.16C924.359 216.824 925.079 216.632 925.703 216.68C927.623 216.824 928.103 219.944 928.583 223.832C928.919 226.136 929.735 226.952 932.039 226.952C933.959 226.952 934.487 226.712 936.215 225.176C937.127 224.408 937.607 224.024 937.751 224.024C938.087 224.024 938.231 223.784 938.231 223.256C938.231 222.824 938.087 222.44 937.847 222.2C937.175 221.528 935.879 221.624 935.015 221.864C932.567 222.536 932.519 217.784 931.703 215.432C931.031 213.512 929.543 212.312 928.439 211.784C927.191 211.208 924.455 211.112 922.103 212.408C920.951 213.032 918.503 215.48 917.111 217.544C916.343 218.648 915.815 219.224 915.575 219.224C915.239 219.224 913.415 209.096 915.239 201.032C915.863 198.296 915.719 196.952 913.847 196.952C913.415 196.952 912.983 197.048 912.551 197.24ZM949.245 213.512C951.741 212.6 954.237 211.832 954.861 212.36C954.429 213.32 952.845 213.848 950.924 214.76C948.141 216.104 944.013 217.112 944.013 216.968C944.013 216.824 947.037 214.328 949.245 213.512ZM938.349 220.712C938.253 223.16 938.493 227.48 944.589 227.672C955.101 228.008 961.484 222.536 963.549 220.28C963.549 220.856 963.213 224.408 964.173 225.56C964.797 226.28 965.565 226.568 966.381 226.568C967.053 226.568 967.821 226.328 968.733 225.896C970.605 224.984 973.197 222.008 975.981 218.792C976.989 217.592 977.853 216.632 978.141 216.632C978.381 216.632 978.813 218.84 979.053 219.608C980.541 223.976 981.549 225.032 983.805 225.032C985.437 225.032 986.061 224.552 988.173 221.576L987.597 220.424C987.165 219.608 986.685 219.176 986.156 219.128C985.389 219.08 984.669 219.896 983.805 217.928C983.229 216.584 981.981 212.36 980.973 211.16C980.397 210.44 979.725 210.392 978.861 210.392C977.757 210.392 975.981 211.784 974.973 213.128C972.765 216.008 969.597 220.28 968.157 220.52H968.109C967.869 220.472 967.725 218.936 967.629 216.008C967.581 213.944 967.293 211.16 967.053 210.44C966.717 209.528 965.613 209.048 965.229 209.048C964.509 209.048 963.549 210.056 963.309 211.064C963.309 211.352 962.781 213.128 961.389 215.288C958.797 219.32 952.845 224.312 946.029 224.072C943.437 223.976 942.333 222.536 943.053 220.136C944.829 220.52 950.637 218.888 954.861 216.392C959.325 213.752 959.037 212.648 958.605 210.44C958.221 208.472 953.853 207.08 948.429 209.528C942.573 212.168 938.541 215.672 938.349 220.712ZM1006.54 207.992C1005.1 207.56 1000.34 206.552 995.64 208.904C993.624 209.912 991.8 212.264 991.656 213.32C991.32 215.72 992.712 216.824 995.88 217.544C997.32 217.88 1004.09 218.936 1005 219.704C1005.14 219.8 1005.14 219.896 1005.14 219.944C1005 222.056 1000.82 223.112 998.376 223.112C996.888 223.112 996.168 222.056 994.632 222.056C992.904 222.056 991.32 223.16 991.32 225.08C991.32 226.712 992.904 227.096 994.632 227.096C998.376 227.096 1006.2 226.712 1009.22 222.2C1009.8 221.336 1010.09 220.136 1010.09 218.648C1010.09 217.304 1009.13 216.344 1008.02 215.816C1006.25 214.952 1004.28 214.472 1000.54 214.136C999.72 214.04 998.376 213.704 998.472 213.416C999.432 211.112 1002.17 210.92 1004.86 211.112C1007.06 211.256 1008.41 211.064 1008.65 209.864C1008.74 209.288 1007.88 208.376 1006.54 207.992ZM1014.41 194.504C1013.93 194.696 1013.69 195.08 1013.69 195.656C1013.69 196.808 1014.46 198.248 1015.95 199.976C1018.64 203.192 1019.55 208.04 1019.55 210.968C1019.55 214.904 1016.86 223.448 1014.36 227.096C1013.84 227.96 1013.55 228.488 1013.55 228.68C1013.55 229.112 1014.36 229.496 1014.89 229.496C1015.95 229.496 1016.62 229.112 1017.34 227.96C1018.4 226.28 1022.96 220.424 1023.15 209.48C1023.24 203.672 1019.64 197.528 1017.15 195.704C1016.24 195.032 1015.66 194.408 1014.89 194.408C1014.8 194.408 1014.6 194.456 1014.41 194.504Z" fill="#171B36"/>
</g>
<defs>
<clipPath id="clip0">
<rect width="1400" height="286" fill="white"/>
</clipPath>
</defs>
</svg>
